HIERARCHY
ROOT Hips
{
	OFFSET 0.000000 0.000000 0.000000 
	CHANNELS 6 Xposition Yposition Zposition Zrotation Yrotation Xrotation
	JOINT LeftUpLeg
	{
		OFFSET 1.363060 -1.794630 0.839290 
		CHANNELS 3 Zrotation Yrotation Xrotation
		JOINT LeftLeg
		{
			OFFSET 2.448110 -6.726130 0.000000 
			CHANNELS 3 Zrotation Yrotation Xrotation
			JOINT LeftFoot
			{
				OFFSET 2.562200 -7.039590 0.000000 
				CHANNELS 3 Zrotation Yrotation Xrotation
				JOINT LeftToeBase
				{
					OFFSET 0.157640 -0.433110 2.322550 
					CHANNELS 3 Zrotation Yrotation Xrotation
					End Site
					{
						OFFSET 0.000000 0.000000 0.000000 
					}
				}
			}
		}
	}
	JOINT RightUpLeg
	{
		OFFSET -1.305520 -1.794630 0.839290 
		CHANNELS 3 Zrotation Yrotation Xrotation
		JOINT RightLeg
		{
			OFFSET -2.542530 -6.985550 0.000000 
			CHANNELS 3 Zrotation Yrotation Xrotation
			JOINT RightFoot
			{
				OFFSET -2.568260 -7.056230 0.000000 
				CHANNELS 3 Zrotation Yrotation Xrotation
				JOINT RightToeBase
				{
					OFFSET -0.164730 -0.452590 2.363150 
					CHANNELS 3 Zrotation Yrotation Xrotation
					End Site
					{
						OFFSET 0.000000 0.000000 0.000000 
					}
				}
			}
		}
	}
	JOINT Spine
	{
		OFFSET 0.028270 2.035590 -0.193380 
		CHANNELS 3 Zrotation Yrotation Xrotation
		JOINT Spine1
		{
			OFFSET 0.056720 2.048850 -0.042750 
			CHANNELS 3 Zrotation Yrotation Xrotation
			JOINT Neck1
			{
				OFFSET -0.054170 1.746240 0.172020 
				CHANNELS 3 Zrotation Yrotation Xrotation
				JOINT Head
				{
					OFFSET 0.104070 1.761360 -0.123970 
					CHANNELS 3 Zrotation Yrotation Xrotation
					End Site
					{
						OFFSET 0.000000 0.000000 0.000000 
					}
				}
			}
			JOINT LeftArm
			{
				OFFSET 3.362410 1.200890 -0.311210 
				CHANNELS 3 Zrotation Yrotation Xrotation
				JOINT LeftForeArm
				{
					OFFSET 4.983000 -0.000000 -0.000000 
					CHANNELS 3 Zrotation Yrotation Xrotation
					JOINT LeftHand
					{
						OFFSET 3.483560 -0.000000 -0.000000 
						CHANNELS 3 Zrotation Yrotation Xrotation
						JOINT LeftHandIndex1
						{
							OFFSET 0.715260 -0.000000 -0.000000 
							CHANNELS 3 Zrotation Yrotation Xrotation
							End Site
							{
								OFFSET 0.000000 0.000000 0.000000 
							}
						}
					}
				}
			}
			JOINT RightArm
			{
				OFFSET -3.136600 1.374050 -0.404650 
				CHANNELS 3 Zrotation Yrotation Xrotation
				JOINT RightForeArm
				{
					OFFSET -5.241900 -0.000000 -0.000000 
					CHANNELS 3 Zrotation Yrotation Xrotation
					JOINT RightHand
					{
						OFFSET -3.444170 -0.000000 -0.000000 
						CHANNELS 3 Zrotation Yrotation Xrotation
						JOINT RightHandIndex1
						{
							OFFSET -0.622530 -0.000000 -0.000000 
							CHANNELS 3 Zrotation Yrotation Xrotation
							End Site
							{
								OFFSET 0.000000 0.000000 0.000000 
							}
						}
					}
				}
			}
		}
	}
}
MOTION
Frames: 10
Frame Time: 0.041667
0.072963 17.807552 -13.499204 -2.013502 -0.835629 7.302657 -15.097562 4.076095 -14.526558 -0.287156 6.160075 16.966454 -1.243062 7.433790 -2.638818 0.068600 -1.689700 -4.648900 20.744909 0.583839 -11.976218 -0.246925 -6.642271 18.894050 -0.358759 0.140482 -5.828015 -0.351000 -3.806700 10.533600 1.468414 -1.071075 -2.324801 0.733890 -0.848551 7.862462 3.101021 -0.037547 31.654377 0.683000 0.480600 11.946000 -97.223242 -7.078386 25.419830 8.185993 -18.175811 -1.410716 -0.130662 -0.713263 -0.659904 -7.125000 0.000000 0.000000 94.211853 5.109656 0.598969 -11.213551 23.652702 -2.835234 0.690456 0.937646 30.528899 7.125000 0.000000 0.000000 
0.072557 17.807755 -13.497073 -2.007660 -0.808929 7.289385 -15.114993 4.112628 -14.601279 -0.273780 6.201545 17.080783 -1.230324 7.378773 -2.607449 0.062500 -1.613200 -4.437800 20.742876 0.576487 -11.927005 -0.242281 -6.624947 18.850669 -0.357846 0.122242 -5.892433 -0.352200 -3.812800 10.550700 1.468520 -1.080130 -2.327944 0.736244 -0.852811 7.844410 3.114272 -0.042330 31.698709 0.688300 0.480700 11.973300 -97.150234 -7.092316 25.241487 8.122259 -18.067930 -1.388289 -0.131836 -0.713214 -0.560091 -7.125000 0.000000 0.000000 94.229589 5.137857 0.345096 -11.142936 23.538852 -2.801248 0.694330 0.939805 30.719665 7.125000 0.000000 0.000000 
0.072861 17.807653 -13.495754 -2.020533 -0.801806 7.282042 -15.112343 4.116486 -14.655085 -0.261177 6.240583 17.187409 -1.224968 7.355026 -2.581159 0.057500 -1.547500 -4.256800 20.757644 0.583225 -11.900003 -0.240352 -6.617552 18.832901 -0.353581 0.097420 -5.897429 -0.352600 -3.815200 10.557200 1.474710 -1.091539 -2.320432 0.750327 -0.859701 7.876878 3.096220 -0.031858 31.728981 0.682900 0.484000 11.994700 -97.124391 -7.187120 24.959750 8.041615 -17.927383 -1.360647 -0.136884 -0.711542 -0.369066 -7.125000 0.000000 0.000000 94.207705 5.174974 0.234447 -11.101391 23.475723 -2.783807 0.695199 0.938947 30.794501 7.125000 0.000000 0.000000 
0.073267 17.807755 -13.495145 -2.007822 -0.764175 7.281664 -15.134065 4.099689 -14.716073 -0.249869 6.278357 17.291206 -1.210467 7.292135 -2.533285 0.054200 -1.502300 -4.132100 20.746846 0.568943 -11.890848 -0.239183 -6.611325 18.818972 -0.346346 0.055455 -5.899636 -0.348500 -3.792800 10.494600 1.475682 -1.100586 -2.325149 0.758507 -0.864283 7.848387 3.094838 -0.040110 31.740424 0.681100 0.480400 11.991000 -97.076196 -7.175858 24.756042 7.997077 -17.850712 -1.345961 -0.139703 -0.710456 -0.199687 -7.125000 0.000000 0.000000 94.200229 5.154998 0.083434 -11.059651 23.410095 -2.765493 0.698696 0.936449 30.882605 7.125000 0.000000 0.000000 
0.073673 17.807044 -13.494333 -2.007624 -0.735618 7.275671 -15.143500 4.085003 -14.765987 -0.237951 6.315977 17.394384 -1.203433 7.261429 -2.500297 0.051300 -1.461100 -4.018500 20.749140 0.559204 -11.879412 -0.239569 -6.609597 18.817405 -0.342830 0.029919 -5.924634 -0.345800 -3.778700 10.454900 1.478670 -1.111675 -2.324741 0.766980 -0.870204 7.844899 3.089066 -0.041737 31.763098 0.678500 0.479700 12.002900 -97.034472 -7.202973 24.531513 7.944095 -17.759045 -1.328504 -0.142054 -0.709418 -0.048338 -7.125000 0.000000 0.000000 94.192253 5.164798 -0.075035 -11.011809 23.335121 -2.744366 0.701797 0.934736 30.993421 7.125000 0.000000 0.000000 
0.074282 17.806029 -13.493927 -2.010570 -0.704971 7.270474 -15.148700 4.058802 -14.806998 -0.226800 6.351191 17.490619 -1.199712 7.244997 -2.470777 0.049300 -1.432700 -3.940200 20.754829 0.547797 -11.876118 -0.241272 -6.612121 18.826952 -0.339771 0.006683 -5.952669 -0.342800 -3.762300 10.408800 1.482236 -1.123007 -2.323448 0.775798 -0.876217 7.844926 3.080531 -0.044275 31.784522 0.674400 0.478300 12.015000 -96.997177 -7.231374 24.314133 7.900385 -17.684228 -1.315201 -0.142257 -0.708618 0.064663 -7.125000 0.000000 0.000000 94.182494 5.174359 -0.229063 -10.965814 23.263159 -2.724267 0.704665 0.933167 31.101611 7.125000 0.000000 0.000000 
0.074789 17.804812 -13.493724 -2.017317 -0.672737 7.264415 -15.148402 4.025142 -14.845203 -0.215446 6.386882 17.588246 -1.198507 7.239453 -2.450576 0.047900 -1.413000 -3.885900 20.765071 0.533958 -11.873664 -0.242870 -6.614367 18.835652 -0.336509 -0.016375 -5.975688 -0.340000 -3.747000 10.366000 1.486331 -1.134234 -2.322217 0.784942 -0.882198 7.843429 3.074819 -0.048441 31.807303 0.671900 0.476100 12.028300 -96.961594 -7.255584 24.114861 7.865866 -17.625877 -1.305584 -0.140459 -0.708185 0.135681 -7.125000 0.000000 0.000000 94.171808 5.180472 -0.381106 -10.920940 23.192662 -2.704518 0.707222 0.932253 31.208250 7.125000 0.000000 0.000000 
0.075500 17.803695 -13.493623 -2.029504 -0.640520 7.256844 -15.140493 3.987746 -14.880555 -0.203947 6.422287 17.685268 -1.198836 7.240647 -2.438556 0.047000 -1.399500 -3.848800 20.781389 0.518778 -11.868143 -0.243872 -6.614922 18.839747 -0.332662 -0.040866 -5.990162 -0.337600 -3.734100 10.329900 1.490846 -1.144662 -2.320239 0.793007 -0.887547 7.844096 3.070687 -0.054734 31.834557 0.670300 0.473000 12.045000 -96.927715 -7.279794 23.937206 7.835893 -17.575795 -1.297517 -0.137616 -0.708082 0.186650 -7.125000 0.000000 0.000000 94.161042 5.185128 -0.529214 -10.878239 23.125393 -2.685478 0.709143 0.932382 31.310882 7.125000 0.000000 0.000000 
0.076108 17.802782 -13.493826 -2.046683 -0.609287 7.249822 -15.125860 3.952042 -14.916225 -0.192672 6.456995 17.780359 -1.199284 7.242054 -2.433924 0.046600 -1.393300 -3.831600 20.803299 0.503310 -11.860842 -0.243834 -6.612826 18.836231 -0.328219 -0.067077 -5.995374 -0.335700 -3.723500 10.300100 1.495430 -1.153405 -2.318433 0.799088 -0.891749 7.843833 3.069785 -0.063712 31.869036 0.670400 0.468800 12.065200 -96.893624 -7.299960 23.781159 7.808254 -17.529567 -1.289768 -0.135148 -0.708108 0.232300 -7.125000 0.000000 0.000000 94.151436 5.188361 -0.680997 -10.834554 23.056622 -2.665971 0.710893 0.932835 31.415580 7.125000 0.000000 0.000000 
0.076920 17.802376 -13.494029 -2.065556 -0.580679 7.243032 -15.107885 3.921588 -14.953899 -0.181914 6.489969 17.870994 -1.197325 7.233119 -2.432150 0.046100 -1.386000 -3.811600 20.826242 0.487217 -11.850277 -0.242876 -6.607990 18.825065 -0.323154 -0.093696 -5.987733 -0.334300 -3.715900 10.278700 1.499365 -1.159301 -2.316345 0.801644 -0.894237 7.844821 3.070982 -0.075833 31.910119 0.671100 0.463500 12.088900 -96.859350 -7.317443 23.647156 7.780007 -17.481895 -1.281295 -0.133365 -0.708275 0.290772 -7.125000 0.000000 0.000000 94.142877 5.187144 -0.824553 -10.792608 22.990829 -2.647353 0.712432 0.933488 31.510091 7.125000 0.000000 0.000000 
